<mxfile host="app.diagrams.net" modified="2023-03-22T12:14:34.406Z" agent="5.0 (Windows)" etag="C9yY4WPUCly4WVdGS2-f" version="21.0.10" type="github">
  <diagram id="C5RBs43oDa-KdzZeNtuy" name="Page-1">
    <mxGraphModel dx="1434" dy="782" grid="1" gridSize="10" guides="1" tooltips="1" connect="1" arrows="1" fold="1" page="1" pageScale="1" pageWidth="827" pageHeight="1169" math="0" shadow="0">
      <root>
        <mxCell id="WIyWlLk6GJQsqaUBKTNV-0" />
        <mxCell id="WIyWlLk6GJQsqaUBKTNV-1" parent="WIyWlLk6GJQsqaUBKTNV-0" />
        <mxCell id="CA7l9j63Nq2aqMQQ_bEk-2" value="" style="edgeStyle=orthogonalEdgeStyle;rounded=0;orthogonalLoop=1;jettySize=auto;html=1;" parent="WIyWlLk6GJQsqaUBKTNV-1" source="CA7l9j63Nq2aqMQQ_bEk-0" target="CA7l9j63Nq2aqMQQ_bEk-1" edge="1">
          <mxGeometry relative="1" as="geometry" />
        </mxCell>
        <mxCell id="CA7l9j63Nq2aqMQQ_bEk-0" value="Start" style="ellipse;whiteSpace=wrap;html=1;" parent="WIyWlLk6GJQsqaUBKTNV-1" vertex="1">
          <mxGeometry x="354" y="20" width="120" height="80" as="geometry" />
        </mxCell>
        <mxCell id="CA7l9j63Nq2aqMQQ_bEk-14" value="" style="edgeStyle=orthogonalEdgeStyle;rounded=0;orthogonalLoop=1;jettySize=auto;html=1;" parent="WIyWlLk6GJQsqaUBKTNV-1" source="CA7l9j63Nq2aqMQQ_bEk-1" target="CA7l9j63Nq2aqMQQ_bEk-13" edge="1">
          <mxGeometry relative="1" as="geometry" />
        </mxCell>
        <mxCell id="CA7l9j63Nq2aqMQQ_bEk-1" value="wyświetl n" style="whiteSpace=wrap;html=1;" parent="WIyWlLk6GJQsqaUBKTNV-1" vertex="1">
          <mxGeometry x="354" y="190" width="120" height="60" as="geometry" />
        </mxCell>
        <mxCell id="CA7l9j63Nq2aqMQQ_bEk-8" value="" style="edgeStyle=orthogonalEdgeStyle;rounded=0;orthogonalLoop=1;jettySize=auto;html=1;" parent="WIyWlLk6GJQsqaUBKTNV-1" target="CA7l9j63Nq2aqMQQ_bEk-7" edge="1">
          <mxGeometry relative="1" as="geometry">
            <mxPoint x="414" y="390" as="sourcePoint" />
          </mxGeometry>
        </mxCell>
        <mxCell id="CA7l9j63Nq2aqMQQ_bEk-10" value="" style="edgeStyle=orthogonalEdgeStyle;rounded=0;orthogonalLoop=1;jettySize=auto;html=1;" parent="WIyWlLk6GJQsqaUBKTNV-1" source="CA7l9j63Nq2aqMQQ_bEk-7" target="CA7l9j63Nq2aqMQQ_bEk-9" edge="1">
          <mxGeometry relative="1" as="geometry" />
        </mxCell>
        <mxCell id="CA7l9j63Nq2aqMQQ_bEk-18" value="" style="edgeStyle=orthogonalEdgeStyle;rounded=0;orthogonalLoop=1;jettySize=auto;html=1;" parent="WIyWlLk6GJQsqaUBKTNV-1" source="CA7l9j63Nq2aqMQQ_bEk-7" target="CA7l9j63Nq2aqMQQ_bEk-17" edge="1">
          <mxGeometry relative="1" as="geometry" />
        </mxCell>
        <mxCell id="CA7l9j63Nq2aqMQQ_bEk-7" value="i.0" style="rhombus;whiteSpace=wrap;html=1;" parent="WIyWlLk6GJQsqaUBKTNV-1" vertex="1">
          <mxGeometry x="374" y="460" width="80" height="80" as="geometry" />
        </mxCell>
        <mxCell id="CA7l9j63Nq2aqMQQ_bEk-12" value="" style="edgeStyle=orthogonalEdgeStyle;rounded=0;orthogonalLoop=1;jettySize=auto;html=1;" parent="WIyWlLk6GJQsqaUBKTNV-1" source="CA7l9j63Nq2aqMQQ_bEk-9" target="CA7l9j63Nq2aqMQQ_bEk-11" edge="1">
          <mxGeometry relative="1" as="geometry" />
        </mxCell>
        <mxCell id="CA7l9j63Nq2aqMQQ_bEk-9" value="podaj ocene" style="whiteSpace=wrap;html=1;" parent="WIyWlLk6GJQsqaUBKTNV-1" vertex="1">
          <mxGeometry x="354" y="630" width="120" height="60" as="geometry" />
        </mxCell>
        <mxCell id="CA7l9j63Nq2aqMQQ_bEk-15" style="edgeStyle=orthogonalEdgeStyle;rounded=0;orthogonalLoop=1;jettySize=auto;html=1;entryX=0.988;entryY=0.425;entryDx=0;entryDy=0;entryPerimeter=0;" parent="WIyWlLk6GJQsqaUBKTNV-1" source="CA7l9j63Nq2aqMQQ_bEk-21" target="CA7l9j63Nq2aqMQQ_bEk-7" edge="1">
          <mxGeometry relative="1" as="geometry">
            <mxPoint x="620" y="630" as="targetPoint" />
            <Array as="points">
              <mxPoint x="610" y="950" />
              <mxPoint x="610" y="494" />
            </Array>
          </mxGeometry>
        </mxCell>
        <mxCell id="CA7l9j63Nq2aqMQQ_bEk-22" value="" style="edgeStyle=orthogonalEdgeStyle;rounded=0;orthogonalLoop=1;jettySize=auto;html=1;" parent="WIyWlLk6GJQsqaUBKTNV-1" source="CA7l9j63Nq2aqMQQ_bEk-11" target="CA7l9j63Nq2aqMQQ_bEk-21" edge="1">
          <mxGeometry relative="1" as="geometry" />
        </mxCell>
        <mxCell id="CA7l9j63Nq2aqMQQ_bEk-11" value="wynik= wynik + ocena" style="whiteSpace=wrap;html=1;" parent="WIyWlLk6GJQsqaUBKTNV-1" vertex="1">
          <mxGeometry x="354" y="770" width="120" height="60" as="geometry" />
        </mxCell>
        <mxCell id="CA7l9j63Nq2aqMQQ_bEk-13" value="i = n" style="whiteSpace=wrap;html=1;" parent="WIyWlLk6GJQsqaUBKTNV-1" vertex="1">
          <mxGeometry x="354" y="330" width="120" height="60" as="geometry" />
        </mxCell>
        <mxCell id="CA7l9j63Nq2aqMQQ_bEk-16" value="tak" style="text;html=1;strokeColor=none;fillColor=none;align=center;verticalAlign=middle;whiteSpace=wrap;rounded=0;" parent="WIyWlLk6GJQsqaUBKTNV-1" vertex="1">
          <mxGeometry x="420" y="555" width="60" height="30" as="geometry" />
        </mxCell>
        <mxCell id="CA7l9j63Nq2aqMQQ_bEk-20" style="edgeStyle=orthogonalEdgeStyle;rounded=0;orthogonalLoop=1;jettySize=auto;html=1;entryX=0.5;entryY=0;entryDx=0;entryDy=0;" parent="WIyWlLk6GJQsqaUBKTNV-1" source="CA7l9j63Nq2aqMQQ_bEk-17" target="CA7l9j63Nq2aqMQQ_bEk-19" edge="1">
          <mxGeometry relative="1" as="geometry" />
        </mxCell>
        <mxCell id="CA7l9j63Nq2aqMQQ_bEk-17" value="wyświetl wynik /n" style="whiteSpace=wrap;html=1;" parent="WIyWlLk6GJQsqaUBKTNV-1" vertex="1">
          <mxGeometry x="194" y="470" width="120" height="60" as="geometry" />
        </mxCell>
        <mxCell id="CA7l9j63Nq2aqMQQ_bEk-19" value="stop" style="ellipse;whiteSpace=wrap;html=1;" parent="WIyWlLk6GJQsqaUBKTNV-1" vertex="1">
          <mxGeometry x="194" y="610" width="120" height="80" as="geometry" />
        </mxCell>
        <mxCell id="CA7l9j63Nq2aqMQQ_bEk-21" value="&lt;div&gt;wynik=wynik - a&lt;/div&gt;&lt;div&gt;3 -1 =3&lt;br&gt;&lt;/div&gt;" style="whiteSpace=wrap;html=1;" parent="WIyWlLk6GJQsqaUBKTNV-1" vertex="1">
          <mxGeometry x="354" y="910" width="120" height="60" as="geometry" />
        </mxCell>
      </root>
    </mxGraphModel>
  </diagram>
</mxfile>
